<?xml version="1.0" encoding="UTF-8" standalone="no"?>
<!-- Created with Inkscape (http://www.inkscape.org/) -->

<svg
   xmlns:dc="http://purl.org/dc/elements/1.1/"
   xmlns:cc="http://creativecommons.org/ns#"
   xmlns:rdf="http://www.w3.org/1999/02/22-rdf-syntax-ns#"
   xmlns:svg="http://www.w3.org/2000/svg"
   xmlns="http://www.w3.org/2000/svg"
   xmlns:sodipodi="http://sodipodi.sourceforge.net/DTD/sodipodi-0.dtd"
   xmlns:inkscape="http://www.inkscape.org/namespaces/inkscape"
   width="160mm"
   height="160mm"
   viewBox="0 0 160 160"
   version="1.1"
   id="svg8"
   inkscape:version="0.92.1 r15371"
   sodipodi:docname="vertical-logo.svg">
  <defs
     id="defs2" />
  <sodipodi:namedview
     id="base"
     pagecolor="#1c1c1c"
     bordercolor="#666666"
     borderopacity="1.0"
     inkscape:pageopacity="0"
     inkscape:pageshadow="2"
     inkscape:zoom="0.7"
     inkscape:cx="585.57945"
     inkscape:cy="109.17427"
     inkscape:document-units="mm"
     inkscape:current-layer="layer1"
     showgrid="false"
     inkscape:pagecheckerboard="true"
     inkscape:window-width="1920"
     inkscape:window-height="1017"
     inkscape:window-x="-8"
     inkscape:window-y="-8"
     inkscape:window-maximized="1" />
  <metadata
     id="metadata5">
    <rdf:RDF>
      <cc:Work
         rdf:about="">
        <dc:format>image/svg+xml</dc:format>
        <dc:type
           rdf:resource="http://purl.org/dc/dcmitype/StillImage" />
        <dc:title></dc:title>
      </cc:Work>
    </rdf:RDF>
  </metadata>
  <g
     inkscape:label="Layer 1"
     inkscape:groupmode="layer"
     id="layer1"
     transform="translate(0,-137)">
    <g
       id="g3704"
       transform="matrix(0.20879747,-0.05548125,0.04946039,0.18305158,-18.915793,68.506706)">
      <g
         id="g3702"
         transform="translate(982.81,-214.73)"
         style="fill:#483737;stroke:#ffffff;stroke-width:5">
        <path
           id="path3688"
           d="m -834.62,881.91 c 0,0 10.094,-93.366 57.408,-132.48 47.314,-39.114 85.165,-27.758 116.08,-20.187 30.915,7.571 73.81,17.664 76.333,22.08 2.523,4.416 -6.3085,11.355 -6.3085,11.355 0,0 -28.388,-15.14 -49.838,-2.5234 -21.449,12.617 -58.039,35.959 -36.59,90.843 21.449,54.884 21.449,54.884 21.449,54.884 l -70.025,71.287 z"
           inkscape:connector-curvature="0"
           style="fill:#ff0000" />
        <path
           id="path3690"
           d="m -854.81,1020.1 c 0,0 -21.449,-93.366 -69.394,-82.642 -47.945,10.725 -70.656,92.736 -70.656,92.736 l -9.7714,-3.1543 c 0,0 13.556,-121.12 43.838,-162.13 30.281,-41.006 80.749,-78.226 164.65,18.295 83.904,96.521 83.904,131.22 83.904,131.22 z"
           inkscape:connector-curvature="0"
           style="fill:#0000ff" />
        <path
           id="path3692"
           d="m -645.67,1020.1 c 0,0 30.912,-85.165 78.857,-74.441 47.945,10.725 70.025,76.964 70.025,76.964 l 11.664,-6.3086 c 0,0 10.859,-71.091 -17.342,-113.55 -54.884,-82.642 -134.74,-33.437 -191.15,-3.7851 -41.92,22.035 -78.226,118.6 -78.226,118.6 z"
           inkscape:connector-curvature="0"
           style="fill:#008000" />
        <path
           id="path3694"
           d="m -855.58,1046.1 c -0.89093,-10.64 -7.1373,-31.226 -7.1373,-31.226 0,0 66.955,-12.879 100.81,-12.49 38.774,0.4453 115.09,16.951 115.09,16.951 0,0 -6.3516,25.406 -8.0295,38.363 -1.4914,11.517 -1.7843,34.794 -1.7843,34.794 0,0 -67.43,-15.211 -101.71,-15.167 -33.689,0.044 -99.922,15.167 -99.922,15.167 3.5639,-15.015 3.969,-30.957 2.6765,-46.392 z"
           inkscape:connector-curvature="0" />
        <path
           id="path3696"
           d="m -529.05,446.58 c 0,16.753 -13.581,30.334 -30.334,30.334 -16.753,0 -30.334,-13.581 -30.334,-30.334 0,-16.753 13.581,-30.334 30.334,-30.334 16.753,0 30.334,13.581 30.334,30.334 z"
           transform="translate(-11.598,317.61)"
           inkscape:connector-curvature="0"
           style="color:#000000;fill:#ffcc00" />
        <path
           id="path3698"
           d="m -529.05,446.58 c 0,16.753 -13.581,30.334 -30.334,30.334 -16.753,0 -30.334,-13.581 -30.334,-30.334 0,-16.753 13.581,-30.334 30.334,-30.334 16.753,0 30.334,13.581 30.334,30.334 z"
           transform="translate(68.697,592.4)"
           inkscape:connector-curvature="0"
           style="color:#000000;fill:#d4aa00" />
        <path
           id="path3700"
           d="m -529.05,446.58 c 0,16.753 -13.581,30.334 -30.334,30.334 -16.753,0 -30.334,-13.581 -30.334,-30.334 0,-16.753 13.581,-30.334 30.334,-30.334 16.753,0 30.334,13.581 30.334,30.334 z"
           transform="translate(-446.97,595.96)"
           inkscape:connector-curvature="0"
           style="color:#000000;fill:#d4aa00" />
      </g>
    </g>
    <text
       xml:space="preserve"
       style="font-style:normal;font-variant:normal;font-weight:bold;font-stretch:normal;font-size:17.05674362px;line-height:1.25;font-family:Roboto;-inkscape-font-specification:'Roboto, Bold';font-variant-ligatures:normal;font-variant-caps:normal;font-variant-numeric:normal;font-feature-settings:normal;text-align:start;letter-spacing:0px;word-spacing:0px;writing-mode:lr-tb;text-anchor:start;fill:#000000;fill-opacity:1;stroke:none;stroke-width:0.42641857"
       x="39.530792"
       y="288.28018"
       id="text3725"><tspan
         sodipodi:role="line"
         id="tspan28"
         style="font-size:40.93618393px;letter-spacing:0.3027572px;fill:#f9f9f9;stroke-width:0.42641857"
         x="39.530792"
         y="288.28018"><tspan
           style="font-size:113.7118988px;fill:#f9f9f9;stroke-width:0.42641857"
           id="tspan30"
           dy="0.95087981">G</tspan><tspan
           style="font-size:56.85581207px;fill:#f9f9f9;stroke-width:0.42641857"
           id="tspan38" /></tspan></text>
  </g>
</svg>
